<svg width="800" height="600" viewBox="0 0 800 600" fill="none" xmlns="http://www.w3.org/2000/svg">
  <rect width="800" height="600" fill="#F8FCF0"/>
  <circle cx="620" cy="119" r="66" fill="#F2C86B"/>
  <path d="M0 405c112-88 232-104 361-48 133 57 279 48 439-28v271H0V405Z" fill="#124C2F"/>
  <path d="M323 178c-15-53 7-94 65-123" stroke="#3B230D" stroke-width="18" stroke-linecap="round"/>
  <path d="M402 114c41-43 91-50 151-22-37 48-88 55-151 22Z" fill="#6F8620"/>
  <path d="M224 198c61-71 127-74 176-13 51-61 117-58 176 13 61 73 43 195-33 256-77 62-124 40-143 9-19 31-67 53-143-9-76-61-94-183-33-256Z" fill="#C43A32"/>
  <path d="M274 210c44-45 85-44 126 4 41-48 83-49 126-4 37 39 49 94 31 151" stroke="#F49C82" stroke-width="17" stroke-linecap="round"/>
  <path d="M271 446c80 39 167 40 260 3" stroke="#8E241F" stroke-width="18" stroke-linecap="round"/>
  <path d="M115 494c146-75 280-80 401-17 88 46 183 51 284 14" stroke="#C58A2A" stroke-width="29" stroke-linecap="round"/>
</svg>
