<svg width="800" height="600" viewBox="0 0 800 600" fill="none" xmlns="http://www.w3.org/2000/svg">
  <rect width="800" height="600" fill="#FFF9EA"/>
  <path d="M0 410c134-77 271-80 410-10 130 65 260 59 390-18v218H0V410Z" fill="#124C2F"/>
  <path d="M122 168h556l-57 332H179l-57-332Z" fill="#B87830"/>
  <path d="M154 208h492l-42 258H196l-42-258Z" fill="#E1A64E"/>
  <path d="M182 173c34 31 77 31 130 0 44-25 89-25 135 0 45 25 91 25 139 0" stroke="#3B230D" stroke-width="20" stroke-linecap="round"/>
  <g fill="#F1CF83" stroke="#9E6B24" stroke-width="5">
    <circle cx="252" cy="278" r="32"/>
    <circle cx="334" cy="258" r="34"/>
    <circle cx="420" cy="293" r="36"/>
    <circle cx="509" cy="265" r="31"/>
    <circle cx="569" cy="337" r="34"/>
    <circle cx="298" cy="360" r="35"/>
    <circle cx="386" cy="378" r="31"/>
    <circle cx="476" cy="362" r="35"/>
  </g>
  <text x="400" y="455" text-anchor="middle" font-family="Arial, sans-serif" font-size="45" font-weight="900" fill="#3B230D">NOHUT</text>
  <circle cx="668" cy="98" r="58" fill="#F2C86B"/>
</svg>
