<svg width="1200" height="630" viewBox="0 0 1200 630" fill="none" xmlns="http://www.w3.org/2000/svg">
  <rect width="1200" height="630" fill="#F7F5EF"/>
  <path d="M0 430c173-116 339-130 499-42 147 82 306 82 477 0 86-41 160-57 224-47v289H0V430Z" fill="#124C2F"/>
  <path d="M0 486c190-99 360-106 509-22 153 87 303 92 451 17 88-44 168-63 240-56v205H0V486Z" fill="#6F8620"/>
  <path d="M74 510c157-81 302-87 434-20 148 76 297 79 446 10 66-31 124-46 174-45" stroke="#C58A2A" stroke-width="30" stroke-linecap="round"/>
  <circle cx="910" cy="160" r="94" fill="#F2C86B"/>
  <image href="/yoremio-mark.svg" x="92" y="76" width="220" height="220"/>
  <text x="350" y="184" font-family="Georgia, 'Times New Roman', serif" font-size="96" font-weight="900" fill="#3B230D">Yöremio</text>
  <text x="356" y="246" font-family="Arial, sans-serif" font-size="34" font-weight="700" fill="#124C2F">Yerel üretici pazarı</text>
  <text x="356" y="300" font-family="Arial, sans-serif" font-size="26" fill="#756C5D">Keşif, güven skoru, talep, teklif ve canlı chat.</text>
</svg>
